<?xml version="1.0" encoding="UTF-8"?>
<svg width="12px" height="16px" viewBox="0 0 12 16" version="1.1" xmlns="http://www.w3.org/2000/svg" xmlns:xlink="http://www.w3.org/1999/xlink">
    <!-- Generator: Sketch 52.5 (67469) - http://www.bohemiancoding.com/sketch -->
    <title>top_icon/07</title>
    <desc>Created with Sketch.</desc>
    <defs>
        <path d="M9.19088031,12.1541799 C9.054408,12.2976569 8.87658044,12.4041076 8.66980421,12.4041076 L8.65326211,12.4041076 L8.63258449,12.4041076 C8.42580826,12.4041076 8.23970965,12.2976569 8.10323734,12.1541799 C7.96676503,11.9921898 7.89232559,11.7931733 7.89232559,11.5525022 C7.89232559,11.3118311 7.96676503,11.0943014 8.10323734,10.9369395 C8.24384518,10.7888342 8.43407931,10.6870119 8.65326211,10.6870119 C8.86003834,10.6870119 9.054408,10.7888342 9.19088031,10.9369395 C9.32735262,11.0943014 9.41419863,11.3118311 9.41419863,11.5525022 C9.41419863,11.7931733 9.32735262,11.9921898 9.19088031,12.1541799 Z M8.65326211,9.844663 C8.2314386,9.844663 7.85097034,10.0344229 7.57389019,10.3491467 C7.29267452,10.6499855 7.12725354,11.0804165 7.12725354,11.5525022 C7.12725354,12.0107029 7.29267452,12.4411339 7.57389019,12.7558577 C7.76412432,12.9641307 8.00812027,13.1261209 8.26865832,13.1955453 L8.26865832,14.0702922 C8.26865832,14.306335 8.43407931,14.4960949 8.65326211,14.4960949 C8.86003834,14.4960949 9.02545932,14.306335 9.02545932,14.0702922 L9.02545932,13.1955453 C9.29426842,13.1261209 9.53412885,12.9641307 9.7284985,12.7558577 C9.99317208,12.4411339 10.1751352,12.0107029 10.1751352,11.5525022 C10.1751352,11.0804165 9.99317208,10.6499855 9.7284985,10.3491467 C9.44728283,10.0344229 9.06681457,9.844663 8.65326211,9.844663 Z M13.0369182,15.2921608 C13.0369182,15.3708418 13.003834,15.4448944 12.9542077,15.5050622 L12.9335301,15.5235754 C12.8963103,15.5606017 12.838413,15.5883714 12.7681091,15.5883714 L4.52600857,15.5883714 C4.45570465,15.5883714 4.38540074,15.5559734 4.33990997,15.5050622 C4.29028367,15.4448944 4.26547052,15.3708418 4.26547052,15.2921608 L4.26547052,9.04396876 C4.26547052,8.96528782 4.29028367,8.88197859 4.33990997,8.8310674 C4.38540074,8.7801562 4.45570465,8.74312988 4.52600857,8.74312988 L12.7681091,8.74312988 C12.846684,8.74312988 12.9004459,8.7801562 12.9542077,8.8310674 C13.003834,8.89123518 13.0369182,8.96528782 13.0369182,9.04396876 L13.0369182,15.2921608 Z M5.89900274,5.48481342 C5.89900274,4.63783627 6.20916708,3.87416835 6.70543003,3.3187735 L6.7343787,3.28174718 C7.23477718,2.74486549 7.90473216,2.41625687 8.65326211,2.41625687 C9.40592759,2.41625687 10.0924247,2.76337865 10.5886876,3.3187735 C11.0849506,3.87416835 11.3868439,4.63783627 11.3868439,5.48481342 L11.3868439,7.33612959 L5.89900274,7.33612959 L5.89900274,5.48481342 Z M13.8433455,7.83598496 C13.5745364,7.53051779 13.1899326,7.33612959 12.7681091,7.33612959 L12.6523144,7.33612959 L12.6523144,5.48481342 C12.6523144,4.24905988 12.2056777,3.13827018 11.4819609,2.31906277 C10.7541086,1.50911195 9.74917613,1 8.65326211,1 C7.56561914,1 6.58136429,1.49059879 5.85351197,2.28666474 L5.81629224,2.31906277 C5.09671097,3.13827018 4.63353221,4.24905988 4.63353221,5.48481342 L4.63353221,7.33612959 L4.52600857,7.33612959 C4.10832059,7.33612959 3.7237168,7.53051779 3.44250113,7.83598496 L3.44663666,7.83598496 L3.44250113,7.84061325 C3.17782756,8.14145213 3,8.57188314 3,9.04396876 L3,15.2921608 C3,15.7642465 3.17782756,16.1900492 3.44250113,16.5001446 C3.7237168,16.8056118 4.10832059,17 4.52600857,17 L12.7681091,17 C13.169255,17 13.5331811,16.8380098 13.8019902,16.5464275 L13.8433455,16.5001446 C14.1245611,16.1900492 14.2941176,15.7642465 14.2941176,15.2921608 L14.2941176,9.04396876 C14.2941176,8.57188314 14.1245611,8.14145213 13.8433455,7.83598496 Z" id="path-1"></path>
    </defs>
    <g id="Page-1" stroke="none" stroke-width="1" fill="none" fill-rule="evenodd" opacity="0.8">
        <g id="登录" transform="translate(-34.000000, -319.000000)">
            <g id="top_icon/07" transform="translate(31.000000, 318.000000)">
                <mask id="mask-2" fill="white">
                    <use xlink:href="#path-1"></use>
                </mask>
                <g id="Mask"></g>
                <g id="BTN/color03" mask="url(#mask-2)" fill="#B36D4C" fill-rule="evenodd">
                    <rect id="Rectangle-2" x="0" y="0" width="18" height="18"></rect>
                </g>
            </g>
        </g>
    </g>
</svg>