<svg width="18px" height="19px" viewBox="0 0 18 19" version="1.1" xmlns="http://www.w3.org/2000/svg" xmlns:xlink="http://www.w3.org/1999/xlink">
    <!-- Generator: Sketch 51.3 (57544) - http://www.bohemiancoding.com/sketch -->
    <desc>Created with Sketch.</desc>
    <defs></defs>
    <g id="Page-1" stroke="none" stroke-width="1" fill="none" fill-rule="evenodd">
        <g id="iPhone-8-Copy-3" transform="translate(-25.000000, -154.000000)" fill="#9D9D9D">
            <g id="Group" transform="translate(23.000000, 133.000000)">
                <g id="日历-(3)" transform="translate(2.000000, 21.000000)">
                    <path d="M4.0086359,10 C3.45143502,10 3,10.5135107 3,11.1475203 C3,11.7811614 3.45143502,12.2951635 4.0086359,12.2951635 C4.56551284,12.2951635 5.01724481,11.7811614 5.01724481,11.1475203 C5.01724481,10.5135107 4.56551284,10 4.0086359,10 Z M8.40804201,10 C7.85097611,10 7.39943311,10.5135107 7.39943311,11.1475203 C7.39943311,11.7811614 7.85097611,12.2951635 8.40804201,12.2951635 C8.96491895,12.2951635 9.41667791,11.7811614 9.41667791,11.1475203 C9.41667791,10.5135107 8.96491895,10 8.40804201,10 Z M4.0086359,14.7047136 C3.45143502,14.7047136 3,15.2188386 3,15.8523568 C3,16.485875 3.45143502,17 4.0086359,17 C4.56551284,17 5.01724481,16.485875 5.01724481,15.8523568 C5.01724481,15.2188386 4.56551284,14.7047136 4.0086359,14.7047136 Z M8.40804201,14.7047136 C7.85097611,14.7047136 7.39943311,15.2188386 7.39943311,15.8523568 C7.39943311,16.485875 7.85097611,17 8.40804201,17 C8.96491895,17 9.41667791,16.485875 9.41667791,15.8523568 C9.41667791,15.2188386 8.96491895,14.7047136 8.40804201,14.7047136 Z M15.5220367,2.61470029 C16.8884634,2.61470029 18,3.72455787 18,5.08897967 L18,16.5257206 C18,17.8901424 16.8884634,19 15.5220367,19 L2.4859485,19 C1.11970747,19 0.00798521453,17.8901424 0.00798521453,16.5257206 L0.00798521453,7.69022328 C0.00392628489,7.6641576 0,7.63777404 0,7.61033091 C0,7.58291426 0.00392628489,7.55653071 0.00798521453,7.53035907 L0.00798521453,5.08897967 C0.00798521453,3.72455787 1.11970747,2.61470029 2.4859485,2.61470029 L4.40006544,2.61470029 L4.40006544,0.546743533 C4.40006544,0.244816072 4.64527254,0 4.9474373,0 C5.24984083,0 5.4950214,0.244816072 5.4950214,0.546743533 L5.4950214,2.61470029 L12.7983623,2.61470029 L12.7983623,0.771904387 C12.7983623,0.469976926 13.0435429,0.225160854 13.3458137,0.225160854 C13.6481111,0.225160854 13.8932917,0.469976926 13.8932917,0.771904387 L13.8932917,2.61470029 L15.5220367,2.61470029 Z M2.4859485,3.60442793 C1.66615083,3.60442793 0.999292561,4.27040076 0.999292561,5.08897967 L0.999292561,7.10734805 L17.0089049,7.10734805 L17.0089049,5.08897967 C17.0089049,4.27040076 16.3420466,3.60442793 15.5220367,3.60442793 L13.8932917,3.60442793 L13.8932917,5.20238127 C13.8932917,5.50422926 13.6481111,5.74915129 13.3458137,5.74915129 C13.0435429,5.74915129 12.7983623,5.50422926 12.7983623,5.20238127 L12.7983623,3.60442793 L5.4950214,3.60442793 L5.4950214,4.97690254 C5.4950214,5.27875053 5.24984083,5.5235666 4.9474373,5.5235666 C4.64527254,5.5235666 4.40006544,5.27875053 4.40006544,4.97690254 L4.40006544,3.60442793 L2.4859485,3.60442793 Z M12.9912831,10 C13.5481601,10 14,10.5135107 14,11.1475203 C14,11.7811614 13.5481601,12.2951635 12.9912831,12.2951635 C12.4342982,12.2951635 11.9827552,11.7811614 11.9827552,11.1475203 C11.9827552,10.5135107 12.4342982,10 12.9912831,10 Z M15.5220367,18.0102724 C16.3420466,18.0102724 17.0089049,17.3444055 17.0089049,16.5256147 L17.0089049,8.1132343 L0.999292561,8.1132343 L0.999292561,16.5256147 C0.999292561,17.3444055 1.66615083,18.0102724 2.4859485,18.0102724 L15.5220367,18.0102724 Z" id="Combined-Shape"></path>
                </g>
            </g>
        </g>
    </g>
</svg>