<?xml version="1.0" encoding="UTF-8"?>
<svg width="10px" height="16px" viewBox="0 0 10 16" version="1.1" xmlns="http://www.w3.org/2000/svg" xmlns:xlink="http://www.w3.org/1999/xlink">
    <!-- Generator: Sketch 52.5 (67469) - http://www.bohemiancoding.com/sketch -->
    <title>top_icon/07 copy</title>
    <desc>Created with Sketch.</desc>
    <defs>
        <path d="M6,1 L11.7777778,1 C12.8823473,1 13.7777778,1.8954305 13.7777778,3 L13.7777778,15 C13.7777778,16.1045695 12.8823473,17 11.7777778,17 L6,17 C4.8954305,17 4,16.1045695 4,15 L4,3 C4,1.8954305 4.8954305,1 6,1 Z M5.88888889,1.88888889 C5.33660414,1.88888889 4.88888889,2.33660414 4.88888889,2.88888889 L4.88888889,15.1111111 C4.88888889,15.6633959 5.33660414,16.1111111 5.88888889,16.1111111 L11.8888889,16.1111111 C12.4411736,16.1111111 12.8888889,15.6633959 12.8888889,15.1111111 L12.8888889,2.88888889 C12.8888889,2.33660414 12.4411736,1.88888889 11.8888889,1.88888889 L5.88888889,1.88888889 Z M8.88888889,2.77777778 L10.6666667,2.77777778 C10.9121266,2.77777778 11.1111111,2.97676233 11.1111111,3.22222222 C11.1111111,3.46768211 10.9121266,3.66666667 10.6666667,3.66666667 L8.88888889,3.66666667 C8.643429,3.66666667 8.44444444,3.46768211 8.44444444,3.22222222 C8.44444444,2.97676233 8.643429,2.77777778 8.88888889,2.77777778 Z M8.88888889,15.2222222 C8.15250922,15.2222222 7.55555556,14.6252686 7.55555556,13.8888889 C7.55555556,13.1525092 8.15250922,12.5555556 8.88888889,12.5555556 C9.62526856,12.5555556 10.2222222,13.1525092 10.2222222,13.8888889 C10.2222222,14.6252686 9.62526856,15.2222222 8.88888889,15.2222222 Z M7.11111111,3.66666667 C6.86565122,3.66666667 6.66666667,3.46768211 6.66666667,3.22222222 C6.66666667,2.97676233 6.86565122,2.77777778 7.11111111,2.77777778 C7.356571,2.77777778 7.55555556,2.97676233 7.55555556,3.22222222 C7.55555556,3.46768211 7.356571,3.66666667 7.11111111,3.66666667 Z" id="path-1"></path>
    </defs>
    <g id="Page-1" stroke="none" stroke-width="1" fill="none" fill-rule="evenodd" opacity="0.801171875">
        <g id="登录" transform="translate(-35.000000, -258.000000)">
            <g id="top_icon/08" transform="translate(31.000000, 257.000000)">
                <mask id="mask-2" fill="white">
                    <use xlink:href="#path-1"></use>
                </mask>
                <g id="Mask"></g>
                <g id="BTN/color03" mask="url(#mask-2)" fill="#B36D4C" fill-rule="evenodd">
                    <rect id="Rectangle-2" x="0" y="0" width="18" height="18"></rect>
                </g>
            </g>
        </g>
    </g>
</svg>