<?xml version="1.0" encoding="UTF-8"?>
<svg width="90px" height="90px" viewBox="0 0 90 90" version="1.1" xmlns="http://www.w3.org/2000/svg" xmlns:xlink="http://www.w3.org/1999/xlink">
    <!-- Generator: Sketch 52.5 (67469) - http://www.bohemiancoding.com/sketch -->
    <title>Fill 1</title>
    <desc>Created with Sketch.</desc>
    <defs>
        <linearGradient x1="100%" y1="0%" x2="0%" y2="100%" id="linearGradient-1">
            <stop stop-color="#EFB88B" offset="0%"></stop>
            <stop stop-color="#AD6241" offset="100%"></stop>
        </linearGradient>
    </defs>
    <g id="Page-1" stroke="none" stroke-width="1" fill="none" fill-rule="evenodd">
        <g id="登录" transform="translate(-143.000000, -104.000000)" fill="url(#linearGradient-1)">
            <path d="M194.070147,165.636188 C200.894348,165.631233 206.430309,160.095272 206.435264,153.271071 L206.438237,149.044159 L195.870214,149.051096 L195.867241,153.278503 C195.866746,154.266484 195.06556,155.067174 194.077579,155.068165 L158.918056,155.092444 L154.090131,150.264518 C153.391509,149.565896 153.391509,148.433732 154.090131,147.735605 L186.73511,115.090131 C187.433732,114.392005 188.565896,114.392005 189.264518,115.090131 L197.852121,123.805071 L212.922045,123.805071 L196.735812,107.618343 C191.911355,102.793886 184.088273,102.793886 179.263817,107.618343 L146.618343,140.263817 C141.793886,145.088769 141.793886,152.91086 146.618343,157.736307 L154.664884,165.636188 L164.625453,165.636188 L194.070147,165.636188 Z M229.381286,140.263817 L220.623735,131.506266 L220.619771,131.502302 L188.995475,131.587028 C182.171769,131.587028 176.640763,137.118035 176.640763,143.94174 L176.640763,148.168157 L187.206804,148.168157 L187.206804,143.94174 C187.206804,142.954255 188.007494,142.153069 188.995475,142.153069 L216.327456,142.153069 L221.909497,147.735605 C222.608119,148.433732 222.608119,149.565896 221.909497,150.264518 L189.264518,182.909497 C188.565896,183.607624 187.433732,183.607624 186.73511,182.909497 L177.358213,173.406254 L162.288289,173.406254 L179.263817,190.381286 C184.088273,195.206238 191.911355,195.206238 196.735812,190.381286 L229.381286,157.736307 C234.206238,152.91086 234.206238,145.088769 229.381286,140.263817 Z" id="Fill-1"></path>
        </g>
    </g>
</svg>