<svg width="12px" height="13px" viewBox="0 0 12 13" version="1.1" xmlns="http://www.w3.org/2000/svg" xmlns:xlink="http://www.w3.org/1999/xlink">
    <!-- Generator: Sketch 51.3 (57544) - http://www.bohemiancoding.com/sketch -->
    <desc>Created with Sketch.</desc>
    <defs></defs>
    <g id="Page-1" stroke="none" stroke-width="1" fill="none" fill-rule="evenodd">
        <g id="iPhone-8-Copy-3" transform="translate(-350.000000, -200.000000)" fill="#DBDBDB">
            <g id="Group-6" transform="translate(312.000000, 200.000000)">
                <g id="星-copy-2" transform="translate(38.000000, 0.000000)">
                    <path d="M6.46981696,0.308493553 L7.9184773,3.40739251 C7.99539702,3.57113077 8.14240777,3.68344711 8.31233257,3.71047745 L11.5510203,4.20708818 C11.9799296,4.27342924 12.1526196,4.83096819 11.8410121,5.15030856 L9.49799559,7.5630968 C9.37391575,7.69028152 9.31859493,7.87298163 9.34697193,8.05290765 L9.89996098,11.458985 C9.97281721,11.9109398 9.52362426,12.2546549 9.14056001,12.042218 L6.24317187,10.4332358 C6.09076562,10.3480006 5.9086672,10.3480006 5.75626094,10.4332358 L2.85887281,12.042218 C2.47442596,12.2559743 2.02523301,11.9109398 2.09940439,11.458985 L2.65244402,8.05290765 C2.68215304,7.87298163 2.62551706,7.69028152 2.50142036,7.5630968 L0.158420743,5.15030856 C-0.151871586,4.83096819 0.0194358129,4.27342924 0.448412471,4.20708818 L3.6870328,3.71047745 C3.85702504,3.68476648 4.00541839,3.57113077 4.08095551,3.40739251 L5.52961586,0.308493553 C5.72253901,-0.102831184 6.2782764,-0.102831184 6.46981696,0.308493553 Z" id="Fill-1"></path>
                </g>
            </g>
        </g>
    </g>
</svg>